<svg xmlns="http://www.w3.org/2000/svg" viewBox="0 0 175.05 58.33"><defs><style>.cls-1{fill:#231f20;}.cls-2{fill:#00bfff;}</style></defs><title>BIO-TEC</title><g id="Capa_2" data-name="Capa 2"><g id="Capa_1-2" data-name="Capa 1"><path class="cls-1" d="M18.72,21.38A16.23,16.23,0,0,0,7,26.54V14.43c0-4-.48-4.68-3.17-4.68H0V57.92H7V55.14c2.47,2.34,5.16,3.19,10.18,3.19,7.43,0,15-4.88,15-18.92,0-13.62-6.74-18-13.48-18M15.35,53.17A10.64,10.64,0,0,1,7,49.87V31.15C9.43,29,12.66,27,16.17,27c4.47,0,8.88,2.48,8.88,13.08s-5,13.07-9.7,13.07"/><path class="cls-1" d="M42.59,21.93H38.67v36h7V27.3c0-4.54-.35-5.37-3.1-5.37"/><path class="cls-1" d="M69.36,21.38c-9.77,0-17.21,7.16-17.21,18.65s7.44,18.3,17.21,18.3,17.2-6.88,17.2-18.3-7.44-18.65-17.2-18.65m0,31.65c-6.06,0-10-4.33-10-13s4-13.35,10-13.35,10,4.68,10,13.35-3.92,13-10,13"/><path class="cls-2" d="M41.78,11.72a2.23,2.23,0,0,0-2.2,2.21,2.21,2.21,0,0,0,4.41,0,2.24,2.24,0,0,0-2.21-2.21"/><path class="cls-2" d="M41.78,9.35a4.67,4.67,0,0,0-4.6,4.6,4.6,4.6,0,0,0,9.2,0,4.66,4.66,0,0,0-4.6-4.6m0,7.26A2.77,2.77,0,0,1,39,13.93a2.78,2.78,0,1,1,5.55,0,2.77,2.77,0,0,1-2.78,2.68"/><path class="cls-2" d="M45.91,10.07a.45.45,0,0,0,.34-.14L50.15,6l0,0a3.41,3.41,0,0,0,2,.64,3.34,3.34,0,0,0,3.36-3.24,3.36,3.36,0,1,0-6.71,0,3.19,3.19,0,0,0,.7,2h0l-3.9,3.94a.47.47,0,0,0,0,.67.46.46,0,0,0,.33.13"/><path class="cls-2" d="M35.86,13.45H29.54a2.48,2.48,0,0,0-2.38-2,2.45,2.45,0,0,0-2.41,2.42,2.4,2.4,0,0,0,2.41,2.34,2.44,2.44,0,0,0,2.37-1.87h6.33a.48.48,0,0,0,.47-.48.47.47,0,0,0-.47-.47"/><path class="cls-2" d="M54.38,17.61a1.6,1.6,0,0,0-1.58,1.58,1.58,1.58,0,0,0,3.16,0,1.6,1.6,0,0,0-1.58-1.58"/><path class="cls-2" d="M54.38,15.39a3.85,3.85,0,0,0-3.26,1.86l-3.49-1.49A.47.47,0,0,0,47,16a.48.48,0,0,0,.25.62l3.47,1.48a3.4,3.4,0,0,0-.18,1.11,3.83,3.83,0,0,0,7.66,0,3.88,3.88,0,0,0-3.83-3.83m0,5.89a2.15,2.15,0,0,1-2.15-2.09,2.15,2.15,0,1,1,4.3,0,2.15,2.15,0,0,1-2.15,2.09"/><path class="cls-1" d="M104.62,24.7a2.67,2.67,0,0,1,2.67-3,2.73,2.73,0,0,1,1.69.47v.71h-.35a1.75,1.75,0,0,0-1.31-.48c-1.06,0-1.77.77-1.77,2.24s.62,2.32,1.7,2.32a1.92,1.92,0,0,0,1.5-.63h.3V27a2.69,2.69,0,0,1-1.83.63C105.67,27.67,104.62,26.59,104.62,24.7Z"/><path class="cls-1" d="M110.19,21.77h3.58v.71h-2.68V24.3h2V25h-2v2h2.78v.69h-3.68Z"/><path class="cls-1" d="M115,21.77h1l2.54,4.3h0v-4.3h.79v5.85h-.84l-2.76-4.69h0v4.69H115Z"/><path class="cls-1" d="M122.11,27.62V22.46h-1.68v-.69h4.27v.69H123v5.16Z"/><path class="cls-1" d="M127.77,25.17h-1.1v2.44h-.9V21.77h1.73c1.29,0,2.08.52,2.08,1.67a1.52,1.52,0,0,1-1,1.56l1.26,2.34v.28h-.83Zm-1.1-.66h.8c.8,0,1.2-.28,1.2-1s-.43-1-1.2-1h-.8Z"/><path class="cls-1" d="M130.62,24.7a2.66,2.66,0,1,1,5.28,0,2.66,2.66,0,1,1-5.28,0Zm4.35,0c0-1.55-.73-2.31-1.71-2.31s-1.71.76-1.71,2.31.73,2.28,1.71,2.28S135,26.26,135,24.71Z"/><path class="cls-1" d="M139,21.77h1.67c1.89,0,2.92.87,2.92,2.91s-1,2.94-3,2.94H139Zm1.64,5.16c1.38,0,2-.62,2-2.24s-.63-2.22-2-2.22h-.74v4.46Z"/><path class="cls-1" d="M144.77,21.77h3.58v.71h-2.68V24.3h2V25h-2v2h2.78v.69h-3.68Z"/><path class="cls-1" d="M104.92,37.83V32h.92v5.85Z"/><path class="cls-1" d="M107.31,32h1l2.55,4.3h0V32h.78v5.85h-.83l-2.77-4.69h0v4.69h-.78Z"/><path class="cls-1" d="M112.76,32.26V32h.85l1.57,4.73h0L116.77,32h.77v.28l-1.93,5.57h-.94Z"/><path class="cls-1" d="M118.6,32h3.58v.7H119.5V34.5h2v.67h-2v2h2.77v.69H118.6Z"/><path class="cls-1" d="M123.09,37.38v-.73h.32a1.87,1.87,0,0,0,1.43.53c.76,0,1.2-.31,1.2-.94s-.59-.83-1.32-1c-1-.3-1.55-.71-1.55-1.66s.73-1.61,1.87-1.61a2.86,2.86,0,0,1,1.55.39V33h-.31a1.81,1.81,0,0,0-1.21-.4c-.74,0-1.1.3-1.1.85s.44.76,1.15,1c1.19.32,1.76.67,1.76,1.72s-.74,1.73-2,1.73A3,3,0,0,1,123.09,37.38Z"/><path class="cls-1" d="M129.11,37.83V32.67h-1.68V32h4.27v.69H130v5.16Z"/><path class="cls-1" d="M132.78,37.83V32h.92v5.85Z"/><path class="cls-1" d="M134.86,34.9a2.64,2.64,0,0,1,2.75-3,3.22,3.22,0,0,1,1.65.39v.76h-.33a1.77,1.77,0,0,0-1.3-.45c-1.09,0-1.81.66-1.81,2.24s.59,2.35,1.69,2.35a2.36,2.36,0,0,0,1.06-.21V35.5h-1v-.64h1.87v2.56a4,4,0,0,1-2,.46C135.87,37.88,134.86,36.85,134.86,34.9Z"/><path class="cls-1" d="M140.39,37.55,142.32,32h1l1.92,5.57v.28h-.86l-.54-1.64h-2.14l-.53,1.64h-.74Zm1.48-2h1.71l-.85-2.58h0Z"/><path class="cls-1" d="M145.75,34.9a2.67,2.67,0,0,1,2.67-3,2.75,2.75,0,0,1,1.69.47v.71h-.35a1.75,1.75,0,0,0-1.31-.48c-1.06,0-1.77.77-1.77,2.24s.62,2.32,1.7,2.32a1.93,1.93,0,0,0,1.5-.63h.29v.69a2.66,2.66,0,0,1-1.82.63C146.79,37.88,145.75,36.8,145.75,34.9Z"/><path class="cls-1" d="M151.34,37.83V32h.92v5.85Z"/><path class="cls-1" d="M153.42,34.9a2.66,2.66,0,1,1,5.28,0,2.66,2.66,0,1,1-5.28,0Zm4.36,0c0-1.55-.74-2.31-1.72-2.31s-1.71.76-1.71,2.31.73,2.29,1.71,2.29S157.78,36.47,157.78,34.92Zm-2-3.33.36-.79H157v.26l-.73.74h-.49Z"/><path class="cls-1" d="M159.86,32h1l2.55,4.3h0V32h.79v5.85h-.84l-2.76-4.69h0v4.69h-.77Z"/><path class="cls-1" d="M104.91,42.19h3.58v.7h-2.68v1.82h2v.67h-2v2h2.77V48h-3.67Z"/><path class="cls-1" d="M109.71,42.19h1l2.55,4.3h0v-4.3h.78V48h-.84l-2.76-4.68h0V48h-.78Z"/><path class="cls-1" d="M117.52,42.19h1.79c1.2,0,1.91.42,1.91,1.5a1.18,1.18,0,0,1-1,1.25v0a1.36,1.36,0,0,1,1.25,1.41c0,1.1-.79,1.66-2.06,1.66h-1.89Zm1.76,2.46c.64,0,1-.26,1-.9s-.4-.88-1-.88h-.88v1.78Zm.1,2.7c.72,0,1.16-.34,1.16-1s-.44-1-1.19-1h-.94v2Z"/><path class="cls-1" d="M122.61,48V42.19h.92V48Z"/><path class="cls-1" d="M124.69,45.11a2.66,2.66,0,1,1,5.29,0,2.66,2.66,0,1,1-5.29,0Zm4.36,0c0-1.55-.73-2.31-1.71-2.31s-1.71.76-1.71,2.31.72,2.28,1.71,2.28S129.05,46.68,129.05,45.13Z"/><path class="cls-1" d="M131.15,48V42.19h.92V48Z"/><path class="cls-1" d="M133.54,42.19h1l2.55,4.3h0v-4.3h.78V48h-.84l-2.76-4.68h0V48h-.78Z"/><path class="cls-1" d="M139.07,45.11a2.63,2.63,0,0,1,2.75-3,3.22,3.22,0,0,1,1.65.39v.75h-.33a1.77,1.77,0,0,0-1.3-.44c-1.09,0-1.81.66-1.81,2.24s.59,2.34,1.69,2.34a2.23,2.23,0,0,0,1.06-.21V45.7h-1v-.63h1.87v2.56a4,4,0,0,1-2,.45C140.08,48.08,139.07,47.06,139.07,45.11Z"/><path class="cls-1" d="M145.07,42.19h3.58v.7H146v1.82h2v.67h-2v2h2.77V48h-3.67Z"/><path class="cls-1" d="M149.87,42.19h1l2.55,4.3h0v-4.3h.79V48h-.84l-2.76-4.68h0V48h-.77Z"/><path class="cls-1" d="M155.72,48V42.19h.92V48Z"/><path class="cls-1" d="M158.11,42.19h3.58v.7H159v1.82h2v.67h-2v2h2.77V48h-3.67Z"/><path class="cls-1" d="M164.93,45.59h-1.1V48h-.9V42.19h1.73c1.29,0,2.09.52,2.09,1.66a1.53,1.53,0,0,1-1,1.56l1.26,2.35V48h-.83Zm-1.1-.66h.8c.8,0,1.2-.29,1.2-1s-.43-1-1.2-1h-.8Z"/><path class="cls-1" d="M168.23,48V42.19h.92V48Zm.18-6.23.36-.8h.86v.27l-.73.74h-.49Z"/><path class="cls-1" d="M170.23,47.76l1.93-5.57h1l1.92,5.57V48h-.86l-.54-1.63H171.5L171,48h-.75Zm1.49-2h1.7l-.84-2.58h0Z"/><path class="cls-1" d="M108.47,56.11V52.4h.81v3.69a1.91,1.91,0,0,1-2.15,2.2,2,2,0,0,1-2.26-2.2V52.4h.91v3.71c0,1.16.58,1.46,1.4,1.46S108.47,57.25,108.47,56.11Z"/><path class="cls-1" d="M112,58.24V53.08h-1.68V52.4h4.27v.68h-1.68v5.16Z"/><path class="cls-1" d="M115.62,52.4h3.58v.7h-2.68v1.82h2v.66h-2v2h2.77v.69h-3.67Z"/><path class="cls-1" d="M120,55.32a2.67,2.67,0,0,1,2.68-3,2.72,2.72,0,0,1,1.68.46v.71H124a1.77,1.77,0,0,0-1.31-.48c-1.06,0-1.77.77-1.77,2.24s.63,2.32,1.7,2.32a2,2,0,0,0,1.51-.63h.29v.69a2.69,2.69,0,0,1-1.83.63C121.07,58.29,120,57.21,120,55.32Z"/></g></g></svg>