<svg xmlns="http://www.w3.org/2000/svg" viewBox="0 0 344.4 93.67"><defs><style>.cls-1{fill:#00bfff;}.cls-2{fill:#231f20;}</style></defs><title>UTEC-BIO</title><g id="Capa_2" data-name="Capa 2"><g id="Capa_1-2" data-name="Capa 1"><polygon class="cls-1" points="164.32 20.42 150.3 29.34 150.3 50.47 147.31 52.38 147.31 31.26 142.6 34.26 133.39 40.12 133.39 79.1 164.32 59.4 164.32 20.42"/><polygon class="cls-2" points="147.31 52.38 150.3 50.47 150.3 29.34 164.32 20.42 133.39 0.72 133.39 14.93 142.6 20.8 142.6 34.26 147.31 31.26 147.31 52.38"/><polygon class="cls-2" points="164.32 20.42 164.32 59.4 195.26 79.1 195.26 61.35 178.44 50.63 178.44 47.12 195.26 57.85 195.26 40.12 183.78 32.81 164.32 20.42"/><path class="cls-2" d="M3.44,82.65V79.1h.77v3.53a1.84,1.84,0,0,1-2.06,2.11A1.93,1.93,0,0,1,0,82.63V79.1H.87v3.55c0,1.11.55,1.4,1.33,1.4s1.24-.3,1.24-1.4"/><polygon class="cls-2" points="6.13 79.11 7.13 79.11 9.56 83.21 9.58 83.21 9.58 79.11 10.33 79.11 10.33 84.69 9.53 84.69 6.89 80.21 6.87 80.21 6.87 84.69 6.13 84.69 6.13 79.11"/><rect class="cls-2" x="12.28" y="79.1" width="0.88" height="5.58"/><polygon class="cls-2" points="14.75 79.37 14.75 79.11 15.56 79.11 17.06 83.62 17.08 83.62 18.59 79.11 19.32 79.11 19.32 79.37 17.48 84.69 16.58 84.69 14.75 79.37"/><polygon class="cls-2" points="20.89 79.11 24.32 79.11 24.32 79.78 21.76 79.78 21.76 81.51 23.63 81.51 23.63 82.15 21.76 82.15 21.76 84.03 24.41 84.03 24.41 84.69 20.89 84.69 20.89 79.11"/><path class="cls-2" d="M26.92,81.72h.77c.75,0,1.14-.27,1.14-1s-.41-1-1.14-1h-.77Zm1,.63h-1v2.33h-.86V79.11h1.65c1.24,0,2,.49,2,1.58a1.46,1.46,0,0,1-.92,1.49L30,84.43v.26H29.2Z"/><path class="cls-2" d="M31.32,84.27v-.71h.3a1.8,1.8,0,0,0,1.37.52c.73,0,1.15-.3,1.15-.91s-.56-.79-1.27-1c-1-.28-1.47-.68-1.47-1.58s.69-1.54,1.78-1.54a2.72,2.72,0,0,1,1.48.37v.68h-.29a1.76,1.76,0,0,0-1.16-.39c-.71,0-1.05.29-1.05.81s.42.74,1.1.91c1.14.31,1.68.64,1.68,1.65s-.71,1.65-1.92,1.65a2.82,2.82,0,0,1-1.7-.47"/><rect class="cls-2" x="36.59" y="79.1" width="0.88" height="5.58"/><path class="cls-2" d="M41,84c1.31,0,1.92-.6,1.92-2.15s-.61-2.12-1.92-2.12h-.71V84ZM39.43,79.1H41c1.81,0,2.79.83,2.79,2.78A2.48,2.48,0,0,1,41,84.69H39.43Z"/><path class="cls-2" d="M46.29,82.49h1.63L47.11,80h0Zm-1.42,1.94,1.84-5.32h.93l1.83,5.32v.26h-.82l-.52-1.57H46.08l-.5,1.57h-.71Z"/><path class="cls-2" d="M52.63,84c1.31,0,1.92-.6,1.92-2.15s-.61-2.12-1.92-2.12h-.71V84ZM51.06,79.1h1.59c1.81,0,2.79.83,2.79,2.78a2.48,2.48,0,0,1-2.81,2.81H51.06Z"/><path class="cls-2" d="M61.12,84c1.31,0,1.92-.6,1.92-2.15s-.61-2.12-1.92-2.12h-.71V84ZM59.55,79.1h1.59c1.81,0,2.79.83,2.79,2.78a2.48,2.48,0,0,1-2.81,2.81H59.55Z"/><polygon class="cls-2" points="65.6 79.11 69.02 79.11 69.02 79.78 66.46 79.78 66.46 81.51 68.33 81.51 68.33 82.15 66.46 82.15 66.46 84.03 69.11 84.03 69.11 84.69 65.6 84.69 65.6 79.11"/><rect class="cls-2" x="73.21" y="79.1" width="0.88" height="5.58"/><polygon class="cls-2" points="76.05 79.11 77.05 79.11 79.48 83.21 79.5 83.21 79.5 79.11 80.25 79.11 80.25 84.69 79.45 84.69 76.81 80.21 76.79 80.21 76.79 84.69 76.05 84.69 76.05 79.11"/><path class="cls-2" d="M81.89,81.9a2.53,2.53,0,0,1,2.64-2.84,3.06,3.06,0,0,1,1.57.37v.72h-.31a1.7,1.7,0,0,0-1.25-.42c-1,0-1.73.63-1.73,2.13s.57,2.25,1.62,2.25a2.17,2.17,0,0,0,1-.2V82.46h-.93v-.6H86.3v2.45a3.91,3.91,0,0,1-1.87.43c-1.57,0-2.54-1-2.54-2.84"/><polygon class="cls-2" points="88.18 79.11 91.61 79.11 91.61 79.78 89.05 79.78 89.05 81.51 90.92 81.51 90.92 82.15 89.05 82.15 89.05 84.03 91.69 84.03 91.69 84.69 88.18 84.69 88.18 79.11"/><polygon class="cls-2" points="93.34 79.11 94.33 79.11 96.77 83.21 96.78 83.21 96.78 79.11 97.53 79.11 97.53 84.69 96.74 84.69 94.1 80.21 94.08 80.21 94.08 84.69 93.34 84.69 93.34 79.11"/><rect class="cls-2" x="99.49" y="79.1" width="0.88" height="5.58"/><polygon class="cls-2" points="102.33 79.11 105.75 79.11 105.75 79.78 103.19 79.78 103.19 81.51 105.07 81.51 105.07 82.15 103.19 82.15 103.19 84.03 105.84 84.03 105.84 84.69 102.33 84.69 102.33 79.11"/><path class="cls-2" d="M108.36,81.72h.76c.76,0,1.14-.27,1.14-1s-.4-1-1.14-1h-.76Zm1,.63h-1v2.33h-.86V79.11h1.65c1.23,0,2,.49,2,1.58a1.45,1.45,0,0,1-.92,1.49l1.21,2.25v.26h-.79Z"/><path class="cls-2" d="M113.29,78.73l.34-.76h.83v.26l-.7.7h-.47Zm-.17.37H114v5.59h-.87Z"/><path class="cls-2" d="M117,82.49h1.63L117.83,80h0Zm-1.42,1.94,1.84-5.32h.93l1.83,5.32v.26h-.82l-.52-1.57h-2l-.5,1.57h-.71Z"/><polygon class="cls-2" points="61.14 93.63 61.14 91.39 59.44 88.32 59.44 88.04 60.23 88.04 61.6 90.57 61.6 90.57 62.95 88.04 63.64 88.04 63.64 88.32 62.01 91.37 62.01 93.63 61.14 93.63"/><polygon class="cls-2" points="68.85 93.63 68.85 88.7 67.25 88.7 67.25 88.04 71.33 88.04 71.33 88.7 69.72 88.7 69.72 93.63 68.85 93.63"/><polygon class="cls-2" points="72.9 88.04 76.32 88.04 76.32 88.71 73.76 88.71 73.76 90.45 75.64 90.45 75.64 91.09 73.76 91.09 73.76 92.97 76.41 92.97 76.41 93.63 72.9 93.63 72.9 88.04"/><path class="cls-2" d="M77.67,90.83A2.55,2.55,0,0,1,80.22,88a2.6,2.6,0,0,1,1.61.45v.68h-.34a1.65,1.65,0,0,0-1.25-.46c-1,0-1.69.74-1.69,2.14S79.15,93,80.18,93a1.82,1.82,0,0,0,1.43-.61h.28v.66a2.52,2.52,0,0,1-1.74.6c-1.49,0-2.48-1-2.48-2.84"/><polygon class="cls-2" points="83.55 88.04 84.54 88.04 86.98 92.15 86.99 92.15 86.99 88.04 87.74 88.04 87.74 93.63 86.94 93.63 84.31 89.15 84.29 89.15 84.29 93.63 83.55 93.63 83.55 88.04"/><path class="cls-2" d="M93.55,90.85c0-1.48-.7-2.21-1.63-2.21s-1.64.73-1.64,2.21S91,93,91.92,93s1.63-.7,1.63-2.18m-4.16,0a2.54,2.54,0,1,1,2.53,2.84,2.56,2.56,0,0,1-2.53-2.84"/><polygon class="cls-2" points="96.1 93.63 96.1 88.04 96.96 88.04 96.96 92.97 99.45 92.97 99.45 93.63 96.1 93.63"/><path class="cls-2" d="M104.56,90.85c0-1.48-.7-2.21-1.64-2.21s-1.63.73-1.63,2.21S102,93,102.92,93s1.64-.7,1.64-2.18m-4.16,0a2.54,2.54,0,1,1,2.52,2.84,2.56,2.56,0,0,1-2.52-2.84"/><path class="cls-2" d="M106.81,90.83A2.52,2.52,0,0,1,109.44,88a3.07,3.07,0,0,1,1.58.38v.72h-.31a1.71,1.71,0,0,0-1.25-.43c-1,0-1.73.64-1.73,2.14S108.3,93,109.35,93a2.22,2.22,0,0,0,1-.19V91.4h-.93v-.61h1.79v2.45a3.8,3.8,0,0,1-1.87.43c-1.57,0-2.54-1-2.54-2.84"/><path class="cls-2" d="M113.29,87.67l.34-.76h.83v.26l-.7.7h-.47Zm-.17.37H114v5.59h-.87Z"/><path class="cls-2" d="M117,91.42h1.63L117.83,89h0Zm-1.42,1.94L117.43,88h.93l1.83,5.32v.27h-.82l-.52-1.57h-2l-.5,1.57h-.71Z"/><polygon class="cls-1" points="195.26 11.44 195.26 0.72 164.32 20.42 183.78 32.81 195.26 25.5 195.26 14.93 180.27 24.49 180.27 21 195.26 11.44"/><polygon class="cls-1" points="187.81 35.37 195.26 40.12 195.26 30.62 187.81 35.37"/><path class="cls-2" d="M18.09,45h3.79V60.08c0,4.89-2.45,7.24-6.53,7.24s-6.47-2.59-6.47-7.43V45h3.79V40.12H0V45H3.46V60.18c0,8.15,4.84,12.09,11.89,12.09s11.81-3.94,11.81-12.19V45h3.45V40.12H18.09Z"/><polygon class="cls-2" points="33.74 49.14 38.87 49.14 38.87 44.82 44.72 44.82 44.72 67.42 40.79 67.42 40.79 72.27 54.08 72.27 54.08 67.42 50.14 67.42 50.14 44.82 56 44.82 56 49.14 61.13 49.14 61.13 40.12 33.74 40.12 33.74 49.14"/><polygon class="cls-2" points="82.68 67.47 73.28 67.47 73.28 57.97 82.82 57.97 82.82 53.36 73.28 53.36 73.28 44.92 82.63 44.92 82.63 49.14 87.81 49.14 87.81 40.12 64.26 40.12 64.26 44.97 67.86 44.97 67.86 67.42 64.26 67.42 64.26 72.27 87.81 72.27 87.81 63.25 82.68 63.25 82.68 67.47"/><path class="cls-2" d="M120.19,45.12a16.23,16.23,0,0,0-5.32-3.89,15.85,15.85,0,0,0-4.53-1.35h0l-.57-.08-.77-.07-.27,0c-.38,0-.77,0-1.16,0h-.09c-.53,0-1.06,0-1.58.06l-.33,0-.84.11A15.34,15.34,0,0,0,91,54.47c0,.49-.07,1-.07,1.5s0,1,.07,1.49a15.34,15.34,0,0,0,13.72,14.59l.84.11.33,0c.52,0,1,.08,1.58.08h.09c.39,0,.78,0,1.16,0l.27,0,.77-.07.57-.08h0a15.85,15.85,0,0,0,4.53-1.35,16.06,16.06,0,0,0,5.31-3.88h0V60.66H115v3.89a12.28,12.28,0,0,1-2.9,1.76,10.86,10.86,0,0,1-3,.83l-.46,0-.74,0h-.41c-6.57,0-10.92-5-11-11.27s4.38-11.23,11-11.28h.41l.74,0,.46,0a11.22,11.22,0,0,1,3,.83,12.28,12.28,0,0,1,2.9,1.76v3.9h5.17V45.12Z"/><path class="cls-2" d="M276.56,35.32a16.21,16.21,0,0,0-11.7,5.16V28.37c0-4-.48-4.68-3.16-4.68h-3.85V71.85h7V69.08c2.48,2.33,5.17,3.19,10.19,3.19,7.43,0,15-4.89,15-18.93,0-13.62-6.75-18-13.49-18M273.19,67.1a10.65,10.65,0,0,1-8.33-3.3V45.09C267.27,43,270.51,41,274,41c4.47,0,8.87,2.48,8.87,13.07s-4.95,13.07-9.7,13.07"/><path class="cls-2" d="M300.44,35.87h-3.92v36h7V41.24c0-4.55-.34-5.37-3.09-5.37"/><path class="cls-2" d="M327.2,35.32c-9.77,0-17.2,7.15-17.2,18.64s7.43,18.31,17.2,18.31S344.4,65.39,344.4,54,337,35.32,327.2,35.32m0,31.65c-6.05,0-10-4.34-10-13s4-13.34,10-13.34S337.25,45.29,337.25,54s-3.92,13-10.05,13"/><path class="cls-1" d="M299.63,25.66a2.23,2.23,0,0,0-2.2,2.2,2.2,2.2,0,0,0,4.4,0,2.23,2.23,0,0,0-2.2-2.2"/><path class="cls-1" d="M299.63,23.29a4.66,4.66,0,0,0-4.6,4.6,4.6,4.6,0,0,0,9.2,0,4.66,4.66,0,0,0-4.6-4.6m0,7.26a2.77,2.77,0,0,1-2.77-2.69,2.77,2.77,0,0,1,5.54,0,2.77,2.77,0,0,1-2.77,2.69"/><path class="cls-1" d="M303.76,24a.47.47,0,0,0,.33-.14L308,19.93s0,0,0,0a3.36,3.36,0,0,0,5.34-2.6,3.36,3.36,0,0,0-6.72,0,3.1,3.1,0,0,0,.71,2l0,0-3.91,3.93a.48.48,0,0,0,.34.81"/><path class="cls-1" d="M293.7,27.39h-6.32a2.42,2.42,0,0,0-4.79.46A2.41,2.41,0,0,0,285,30.2a2.44,2.44,0,0,0,2.37-1.88h6.32a.47.47,0,1,0,0-.94"/><path class="cls-1" d="M312.23,31.54a1.6,1.6,0,0,0-1.58,1.58,1.58,1.58,0,0,0,3.16,0,1.6,1.6,0,0,0-1.58-1.58"/><path class="cls-1" d="M312.23,29.32A3.88,3.88,0,0,0,309,31.18l-3.49-1.49a.47.47,0,0,0-.62.25.47.47,0,0,0,.25.62L308.57,32a3.73,3.73,0,0,0-.17,1.11,3.83,3.83,0,0,0,7.66,0,3.88,3.88,0,0,0-3.83-3.83m0,5.89a2.14,2.14,0,0,1-2.15-2.09,2.15,2.15,0,0,1,4.3,0,2.15,2.15,0,0,1-2.15,2.09"/><rect class="cls-2" x="228.22" width="1.2" height="78.52"/></g></g></svg>